# xmcd
#
# Track frame offsets: 
#        150
#        14985
#        29780
#        46592
#        59227
#        73415
#        88787
#        102407
#        114095
#        126740
#        137280
#
# Disc length: 2114 seconds
#
# Revision: 1
# Processed by: cddbd v1.5.2PL0 Copyright (c) Steve Scherf et al.
# Submitted via: ExactAudioCopy v1.1
#
DISCID=aa08400b
DTITLE=Steve Haggard - Rough Edge
DYEAR=1994
DGENRE=Country
TTITLE0=Give Me One Good Reason
TTITLE1=You Were Right
TTITLE2=Ramblin' Man
TTITLE3=Her Blue Eyes
TTITLE4=Can't  Get Over (Gettin' Over You)
TTITLE5=This Must Be That Thing (They Call Love)
TTITLE6=That's How I Got To Memphis
TTITLE7=Forgettin' You (Bottle By Bottle)
TTITLE8=The Answer's Still No
TTITLE9=Miles To Go Before I Sleep
TTITLE10=Rockin' Blue Number Eleven
EXTD=
EXTT0=
EXTT1=
EXTT2=
EXTT3=
EXTT4=
EXTT5=
EXTT6=
EXTT7=
EXTT8=
EXTT9=
EXTT10=
PLAYORDER=
